<svg aria-hidden="true" style="position: absolute; width: 0; height: 0; overflow: hidden;" version="1.1" xmlns="http://www.w3.org/2000/svg" xmlns:xlink="http://www.w3.org/1999/xlink">
    <defs>
        <symbol id="login" viewBox="0 0 24 24">
            <title>login</title>
            <path d="M12 2C6.48 2 2 6.48 2 12s4.48 10 10 10 10-4.48 10-10S17.52 2 12 2zm0 3c1.66 0 3 1.34 3 3s-1.34 3-3 3-3-1.34-3-3 1.34-3 3-3zm0 14.2c-2.5 0-4.71-1.28-6-3.22.03-1.99 4-3.08 6-3.08 1.99 0 5.97 1.09 6 3.08-1.29 1.94-3.5 3.22-6 3.22z"/>
            <path d="M0 0h24v24H0z" fill="none"/>
        </symbol>
        <symbol id="basket" viewBox="0 0 24 24">
            <title>basket</title>
            <path class="text-orange-dark fill-current" d="M17.21 9l-4.38-6.56c-.19-.28-.51-.42-.83-.42-.32 0-.64.14-.83.43L6.79 9H2c-.55 0-1 .45-1 1 0 .09.01.18.04.27l2.54 9.27c.23.84 1 1.46 1.92 1.46h13c.92 0 1.69-.62 1.93-1.46l2.54-9.27L23 10c0-.55-.45-1-1-1h-4.79zM9 9l3-4.4L15 9H9zm3 8c-1.1 0-2-.9-2-2s.9-2 2-2 2 .9 2 2-.9 2-2 2z"/>
            <path d="M0 0h24v24H0z" fill="none"/>
        </symbol>
        <symbol id="arrow-up" viewBox="0 0 24 24">
            <title>arrow-up</title>
            <path fill="none" d="M0 0h24v24H0V0z"/>
            <path d="M7.41 15.41L12 10.83l4.59 4.58L18 14l-6-6-6 6 1.41 1.41z"/>
        </symbol>
        <symbol id="arrow-down" viewBox="0 0 24 24">
            <title>arrow-down</title>
            <path fill="none" d="M0 0h24v24H0V0z"/>
            <path d="M7.41 8.59L12 13.17l4.59-4.58L18 10l-6 6-6-6 1.41-1.41z"/>
        </symbol>
    </defs>
</svg>
